<svg width="512" height="512" viewBox="0 0 512 512" fill="none" xmlns="http://www.w3.org/2000/svg">
  <defs>
    <linearGradient id="bg" x1="60" y1="36" x2="452" y2="476" gradientUnits="userSpaceOnUse">
      <stop stop-color="#11853A"/>
      <stop offset="1" stop-color="#0B6D2F"/>
    </linearGradient>
    <linearGradient id="panel" x1="98" y1="74" x2="420" y2="432" gradientUnits="userSpaceOnUse">
      <stop stop-color="#1DA34E"/>
      <stop offset="1" stop-color="#0D7635"/>
    </linearGradient>
    <linearGradient id="ring" x1="110" y1="94" x2="402" y2="368" gradientUnits="userSpaceOnUse">
      <stop stop-color="#FFCDF9"/>
      <stop offset="1" stop-color="#C9B5FF"/>
    </linearGradient>
    <linearGradient id="basketTop" x1="150" y1="290" x2="370" y2="290" gradientUnits="userSpaceOnUse">
      <stop stop-color="#DD8B55"/>
      <stop offset="1" stop-color="#C87346"/>
    </linearGradient>
    <linearGradient id="basketBody" x1="156" y1="314" x2="352" y2="408" gradientUnits="userSpaceOnUse">
      <stop stop-color="#F1E3C6"/>
      <stop offset="1" stop-color="#D7C7A2"/>
    </linearGradient>
    <linearGradient id="handle" x1="128" y1="314" x2="202" y2="402" gradientUnits="userSpaceOnUse">
      <stop stop-color="#7F746B"/>
      <stop offset="1" stop-color="#544A46"/>
    </linearGradient>
    <linearGradient id="shield" x1="294" y1="308" x2="398" y2="416" gradientUnits="userSpaceOnUse">
      <stop stop-color="#EDECEC"/>
      <stop offset="1" stop-color="#B6B8B8"/>
    </linearGradient>
    <filter id="softShadow" x="56" y="52" width="400" height="404" filterUnits="userSpaceOnUse" color-interpolation-filters="sRGB">
      <feDropShadow dx="0" dy="18" stdDeviation="16" flood-color="#093E1C" flood-opacity="0.22"/>
    </filter>
    <filter id="glow" x="80" y="88" width="352" height="314" filterUnits="userSpaceOnUse" color-interpolation-filters="sRGB">
      <feGaussianBlur stdDeviation="10" result="blur"/>
      <feBlend in="SourceGraphic" in2="blur" mode="screen"/>
    </filter>
  </defs>

  <rect width="512" height="512" rx="44" fill="url(#bg)"/>
  <rect x="42" y="42" width="428" height="428" rx="42" fill="url(#panel)" opacity="0.9"/>

  <g filter="url(#glow)">
    <path d="M130 140C158 96 214 70 270 72C324 74 373 103 396 146" stroke="url(#ring)" stroke-width="14" stroke-linecap="round"/>
    <path d="M106 184C102 212 102 246 108 276C114 306 127 332 146 352" stroke="url(#ring)" stroke-width="14" stroke-linecap="round"/>
    <path d="M404 180C414 220 414 266 400 304C388 338 366 366 336 386" stroke="url(#ring)" stroke-width="14" stroke-linecap="round"/>
  </g>

  <g filter="url(#softShadow)">
    <text x="110" y="108" fill="white" font-size="84" font-weight="800" font-family="Trebuchet MS, Verdana, sans-serif" transform="rotate(-6 110 108)">Zeppe</text>

    <ellipse cx="246" cy="364" rx="126" ry="32" fill="#0A5E29" opacity="0.24"/>

    <rect x="132" y="280" width="236" height="26" rx="13" fill="url(#basketTop)"/>
    <path d="M152 298H352L336 390C333 406 319 418 302 418H202C184 418 170 405 168 387L152 298Z" fill="url(#basketBody)"/>

    <rect x="178" y="312" width="18" height="86" rx="9" fill="#B27549" opacity="0.9"/>
    <rect x="214" y="312" width="18" height="86" rx="9" fill="#B27549" opacity="0.9"/>
    <rect x="250" y="312" width="18" height="86" rx="9" fill="#B27549" opacity="0.9"/>
    <rect x="286" y="312" width="18" height="86" rx="9" fill="#B27549" opacity="0.9"/>

    <path d="M178 314C154 296 132 314 126 338C122 354 126 374 146 384" stroke="url(#handle)" stroke-width="16" stroke-linecap="round"/>
    <path d="M352 308C364 304 372 312 374 322" stroke="#B46543" stroke-width="12" stroke-linecap="round"/>

    <path d="M236 254C244 208 272 182 308 172" stroke="#C58A57" stroke-width="18" stroke-linecap="round"/>
    <rect x="300" y="166" width="58" height="92" rx="9" fill="#F4F6F9"/>
    <path d="M325 166H358V194L325 184V166Z" fill="#E2E6EC"/>
    <rect x="332" y="186" width="16" height="18" rx="6" fill="#7EA0E8"/>

    <path d="M174 210L206 178L218 252H162L174 210Z" fill="#E28A41"/>
    <path d="M216 180C230 182 240 190 246 202" stroke="#74C65A" stroke-width="8" stroke-linecap="round"/>
    <path d="M180 178C172 166 162 158 148 154" stroke="#78C95D" stroke-width="8" stroke-linecap="round"/>
    <path d="M196 176C192 162 190 152 194 138" stroke="#7BC95B" stroke-width="8" stroke-linecap="round"/>

    <path d="M126 214L150 188L162 254H112L126 214Z" fill="#EB9A48"/>
    <path d="M132 186C126 172 116 162 102 156" stroke="#70BE56" stroke-width="8" stroke-linecap="round"/>
    <path d="M148 186C150 170 156 158 168 148" stroke="#78C95D" stroke-width="8" stroke-linecap="round"/>

    <circle cx="240" cy="244" r="32" fill="#D6402F"/>
    <path d="M240 210C252 206 264 206 274 216" stroke="#74C85B" stroke-width="8" stroke-linecap="round"/>
    <path d="M242 214C244 206 250 198 260 192" stroke="#7CCB62" stroke-width="8" stroke-linecap="round"/>

    <circle cx="290" cy="246" r="13" fill="#B7D95D"/>
    <circle cx="304" cy="238" r="13" fill="#A8D14E"/>
    <circle cx="318" cy="248" r="13" fill="#B7D95D"/>
    <circle cx="332" cy="240" r="13" fill="#A8D14E"/>

    <path d="M350 328C350 314 362 304 376 304C390 304 402 314 402 328V352C402 386 390 404 376 416C362 404 350 386 350 352V328Z" fill="url(#shield)"/>
    <path d="M374 330C366 330 360 336 360 344V364H392V344C392 336 386 330 378 330H374Z" fill="#2C8B47"/>
    <path d="M364 342H388" stroke="#E9F6EC" stroke-width="4" stroke-linecap="round"/>
    <path d="M372 338V366" stroke="#E9F6EC" stroke-width="4" stroke-linecap="round"/>
    <path d="M376 320V330" stroke="#2C8B47" stroke-width="5" stroke-linecap="round"/>
  </g>
</svg>
